<svg width="1759" height="600" viewBox="0 0 1759 600" fill="none" xmlns="http://www.w3.org/2000/svg">
<path d="M1103.73 404.281L1064.38 444.083L1025.02 404.281H1009.26L993.505 420.216V515.795H1009.26V425.034L1013.95 420.216H1020.25L1056.46 456.847V515.795H1072.21V456.847L1108.58 420.216H1114.74L1119.42 425.034V515.795H1135.18V420.216L1119.42 404.281H1103.73Z" fill="url(#paint0_linear_2660_50994)"/>
<path d="M1166.68 404.281L1150.94 420.216V452.099L1158.77 460.031L1150.94 468.033V499.846L1166.68 515.795H1261.15V499.846H1171.38L1166.68 495.098V472.781L1171.38 468.033H1261.15V452.099H1171.38L1166.68 447.281V425.034L1171.38 420.216H1261.15V404.281H1166.68Z" fill="url(#paint1_linear_2660_50994)"/>
<path d="M1292.6 404.281L1276.83 420.216V499.846L1292.6 515.795H1371.31L1387.07 499.846V452.099H1324.04V468.033H1371.31V495.098L1366.55 499.846H1297.28L1292.6 495.098V425.034L1297.28 420.216H1387.07V404.281H1292.6Z" fill="url(#paint2_linear_2660_50994)"/>
<path d="M1486.14 420.216H1492.44L1497.22 425.034V468.033H1439.11L1486.14 420.216ZM1481.47 404.281L1402.74 483.912V515.795H1418.5V488.883L1423.34 483.912H1497.22V515.795H1512.97V420.216L1497.22 404.281H1481.47Z" fill="url(#paint3_linear_2660_50994)"/>
<mask id="mask0_2660_50994" style="mask-type:luminance" maskUnits="userSpaceOnUse" x="1253" y="82" width="1" height="1">
<path d="M1253.3 82.3254L1253.17 82.2695C1253.24 82.3114 1253.3 82.3254 1253.3 82.3254Z" fill="white"/>
</mask>
<g mask="url(#mask0_2660_50994)">
<path d="M1253.3 82.2695H1253.17V82.3254H1253.3V82.2695Z" fill="url(#paint4_linear_2660_50994)"/>
</g>
<path d="M439.823 11.3121C419.503 39.6337 406.697 72.4801 402.256 106.625C436.219 87.814 462.237 56.4618 474.135 18.8392C475.951 13.0716 473.256 6.87107 467.795 4.27353C467.711 4.23163 467.627 4.18961 467.544 4.14772C464.471 2.70929 461.217 2.01099 457.991 2.01099C450.967 2.01099 444.124 5.30701 439.823 11.3121Z" fill="url(#paint5_linear_2660_50994)"/>
<path d="M539.563 269.432C571.544 285.967 608.859 290.981 644.624 282.671C650.183 281.373 653.855 276.108 653.353 270.41C653.353 270.34 653.353 270.284 653.353 270.229C652.878 265.019 648.898 260.816 643.745 259.964C632.545 258.148 621.288 257.241 610.074 257.241C585.998 257.241 562.131 261.388 539.577 269.418" fill="url(#paint6_linear_2660_50994)"/>
<path d="M492.43 564.966C498.169 571.837 508.252 573.024 515.556 567.857C515.64 567.801 515.71 567.745 515.793 567.703C522.357 563.081 524.787 554.478 521.715 547.077C507.722 513.42 485.21 484.177 456.874 462.084C455.771 499.245 468.256 536.058 492.444 564.966" fill="url(#paint7_linear_2660_50994)"/>
<path d="M178.182 211.253C162.988 236.907 141.467 256.501 116.805 269.237C136.999 276.443 156.145 286.75 173.462 299.947C194.34 284.068 212.565 263.958 226.753 239.994C240.244 217.202 248.902 192.917 253.064 168.282C233.652 160.824 215.609 150.56 199.479 137.977C198.739 162.989 191.84 188.182 178.196 211.239" fill="url(#paint8_linear_2660_50994)"/>
<path d="M192.958 1.4804C192.874 1.50833 192.776 1.55 192.692 1.59189C184.648 5.22287 180.598 14.3424 183.489 22.6936C195.918 58.6822 221.405 88.5818 254.279 106.751C249.657 70.7481 235.733 36.1563 213.515 6.78728C210.205 2.41615 205.107 0 199.884 0C197.552 0 195.192 0.488881 192.972 1.49438" fill="url(#paint9_linear_2660_50994)"/>
<path d="M9.64958 317.878C4.34277 319.191 0.86531 324.246 1.34013 329.679C1.34013 329.735 1.34014 329.79 1.35411 329.86C1.801 334.832 5.59948 338.868 10.5292 339.72C46.42 345.962 83.0372 342.611 116.777 330.628C94.9915 319.358 70.7197 313.437 46.1407 313.437C33.963 313.437 21.7016 314.903 9.6356 317.878" fill="url(#paint10_linear_2660_50994)"/>
<path d="M183.434 577.521C180.599 585.775 184.593 594.81 192.539 598.413C192.623 598.441 192.707 598.483 192.804 598.525C199.969 601.751 208.404 599.544 213.166 593.288C235.427 563.975 249.392 529.411 254.07 493.436C221.252 511.633 195.821 541.532 183.434 577.521Z" fill="url(#paint11_linear_2660_50994)"/>
<path d="M19.9563 258.651C9.45439 259.978 1.34064 268.623 0.670307 279.18C0.670307 279.25 0.670307 279.306 0.670307 279.376C0.251348 286.219 0 293.09 0 300.031C0 306.971 0.22339 313.675 0.642349 320.406L1.34061 329.693C1.34061 329.693 1.0753 321.97 11.1443 317.543C47.091 309.052 84.6297 314.01 116.778 330.657C141.441 343.407 162.933 363.028 178.099 388.696C191.772 411.837 198.642 437.114 199.313 462.196C215.471 449.585 233.514 439.306 252.953 431.821C248.82 407.158 240.161 382.817 226.685 359.998C212.524 336.019 194.299 315.909 173.449 299.975C156.132 286.778 137 276.471 116.792 269.265C94.182 261.207 70.2455 257.031 46.1134 257.031C37.3991 257.031 28.6568 257.576 19.9425 258.679" fill="url(#paint12_linear_2660_50994)"/>
<path d="M179.231 8.05815C179.036 8.12798 178.868 8.22565 178.672 8.32341L178.449 8.43524C169.637 12.96 161.062 17.8479 152.753 23.1128C152.669 23.1547 152.585 23.1964 152.501 23.2662C138.117 32.3716 133.062 50.9873 140.673 66.2235C154.722 94.3217 174.902 118.831 199.481 137.991C215.625 150.574 233.654 160.838 253.066 168.296C276.374 177.248 301.707 182.177 328.171 182.177C354.635 182.177 380.038 177.234 403.388 168.254C422.828 160.769 440.871 150.49 457.015 137.866C481.217 118.97 501.159 94.8663 515.138 67.2569C522.875 51.9928 517.848 33.2654 503.435 24.0483L503.198 23.8949C495.377 18.9093 487.333 14.2589 479.08 9.92962L479.066 9.90167L478.493 9.62209C477.963 9.35675 477.446 9.06369 476.915 8.79835C476.915 8.81232 476.915 8.82634 476.915 8.85427L466.372 3.65888C466.372 3.65888 476.594 11.6331 470.002 30.2628C469.011 32.6788 467.978 35.0811 466.888 37.4412C466.441 38.307 466.05 39.131 465.701 39.8991C451.89 68.109 429.657 91.459 402.257 106.625C380.303 118.803 355.054 125.744 328.171 125.744C301.288 125.744 276.192 118.845 254.281 106.737C223.11 89.5176 198.601 61.7547 185.543 28.2379C183.337 21.2832 181.228 8.39314 192.708 1.59204L179.245 8.05815H179.231Z" fill="url(#paint13_linear_2660_50994)"/>
<path d="M403.373 168.254C407.507 192.917 416.165 217.258 429.642 240.091C443.803 264.07 461.999 284.18 482.878 300.086C500.195 313.297 519.327 323.604 539.535 330.81C569.42 341.465 601.597 345.334 633.507 341.745C644.61 340.502 653.352 331.536 654.036 320.378C654.036 320.308 654.036 320.252 654.036 320.183C654.441 313.507 654.679 306.79 654.679 300.003C654.679 294.738 654.525 289.487 654.287 284.264V284.208C654.036 278.035 653.184 269.265 653.184 269.265C653.576 277.575 646.523 281.694 639.512 283.747C605.311 290.464 570.021 285.171 539.549 269.419C514.886 256.654 493.393 237.047 478.227 211.365C464.555 188.225 457.684 162.947 457 137.852C440.856 150.462 422.799 160.755 403.373 168.24" fill="url(#paint14_linear_2660_50994)"/>
<path d="M252.967 431.793C233.528 439.278 215.484 449.557 199.327 462.168C174.664 481.426 154.414 506.116 140.379 534.41C132.936 549.437 138.075 567.647 152.25 576.627L152.473 576.781C159.358 581.124 166.396 585.23 173.602 589.056L173.993 589.266C175.739 590.187 177.471 591.109 179.216 592.003C179.216 591.933 179.244 591.877 179.272 591.822L194.006 598.972C192.665 598.315 180.152 591.682 183.937 576.041C196.506 540.708 221.685 511.354 254.07 493.408C276.024 481.23 301.287 474.303 328.17 474.303C355.054 474.303 380.149 481.202 402.075 493.296C399.463 473.005 399.812 452.252 403.29 431.737C379.968 422.771 354.663 417.856 328.184 417.856C301.706 417.856 276.317 422.785 252.981 431.765" fill="url(#paint15_linear_2660_50994)"/>
<path d="M429.586 360.054C416.109 382.831 407.437 407.13 403.275 431.765C399.798 452.28 399.449 473.019 402.06 493.324C405.984 523.852 416.584 553.403 433.273 579.574C442.518 594.084 461.357 599.265 476.663 591.403C476.747 591.361 476.83 591.319 476.914 591.277C483.701 587.785 490.349 584.057 496.857 580.105C496.857 580.105 511.185 571.474 516.087 567.48C512.526 569.98 501.144 573.08 491.508 563.863C467.934 535.122 455.771 498.785 456.86 462.084C457.6 437.058 464.499 411.879 478.157 388.822C493.337 363.168 514.858 343.574 539.535 330.838C519.341 323.632 500.194 313.325 482.877 300.114C461.999 316.007 443.775 336.103 429.586 360.082" fill="url(#paint16_linear_2660_50994)"/>
<path d="M908.791 146.873H943.69V342.304H908.791V273.622H833.965C826.521 273.622 820.195 276.234 814.986 281.443L783.159 313.27V342.304H748.26V146.873H783.159V264.126L794.052 252.953C803.73 243.457 815.265 238.723 828.672 238.723H908.805V146.873H908.791Z" fill="url(#paint17_linear_2660_50994)"/>
<path d="M1180.3 146.873H1215.2V170.321C1215.2 183.728 1210.46 195.263 1200.96 204.941L1152.09 253.805C1147.07 258.651 1141.3 262.366 1134.79 264.978V342.317H1100.17V264.978C1093.65 262.38 1087.98 258.651 1083.13 253.805L1034 204.941C1024.51 195.263 1019.76 183.728 1019.76 170.321V146.873H1054.66V165.028C1054.66 172.471 1057.27 178.798 1062.48 184.007L1101.01 222.537C1105.66 227.006 1111.15 229.24 1117.49 229.24C1123.83 229.24 1129.3 227.006 1133.97 222.537L1172.5 184.007C1177.71 178.798 1180.32 172.471 1180.32 165.028V146.873H1180.3Z" fill="url(#paint18_linear_2660_50994)"/>
<path d="M1486.7 178.979C1486.7 192.386 1481.96 203.824 1472.46 213.32L1429.46 256.319L1472.46 299.039C1481.96 308.535 1486.7 320.071 1486.7 333.659V342.317H1451.8V338.686C1451.8 331.425 1449.19 325.196 1443.98 319.987L1405.45 281.457C1400.24 276.248 1394 273.636 1386.75 273.636H1326.17V342.317H1291.27V146.887H1486.7V178.993V178.979ZM1444 192.372C1447.17 189.397 1449.39 185.864 1450.7 181.758H1326.19V238.709H1386.77C1394.03 238.709 1400.26 236.097 1405.47 230.888L1444 192.358V192.372Z" fill="url(#paint19_linear_2660_50994)"/>
<path d="M1680.88 146.873H1758.22V342.304H1723.32V273.622H1597.69V342.304H1562.79V264.964C1562.79 251.376 1567.53 239.84 1577.03 230.344L1646.27 161.104C1655.77 151.608 1667.3 146.859 1680.89 146.859L1680.88 146.873ZM1723.32 238.723V181.772H1685.9C1678.64 181.772 1672.41 184.384 1667.2 189.593L1617.78 238.737H1723.32V238.723Z" fill="url(#paint20_linear_2660_50994)"/>
<defs>
<linearGradient id="paint0_linear_2660_50994" x1="1063.61" y1="435.103" x2="1066.67" y2="572.41" gradientUnits="userSpaceOnUse">
<stop stop-color="#F37321"/>
<stop offset="1" stop-color="#EE3478"/>
</linearGradient>
<linearGradient id="paint1_linear_2660_50994" x1="1205.6" y1="431.947" x2="1208.64" y2="569.254" gradientUnits="userSpaceOnUse">
<stop stop-color="#F37321"/>
<stop offset="1" stop-color="#EE3478"/>
</linearGradient>
<linearGradient id="paint2_linear_2660_50994" x1="1331.44" y1="429.154" x2="1334.5" y2="566.461" gradientUnits="userSpaceOnUse">
<stop stop-color="#F37321"/>
<stop offset="1" stop-color="#EE3478"/>
</linearGradient>
<linearGradient id="paint3_linear_2660_50994" x1="1456.93" y1="426.361" x2="1459.99" y2="563.668" gradientUnits="userSpaceOnUse">
<stop stop-color="#F37321"/>
<stop offset="1" stop-color="#EE3478"/>
</linearGradient>
<linearGradient id="paint4_linear_2660_50994" x1="-281.747" y1="-184.351" x2="-281.582" y2="-184.351" gradientUnits="userSpaceOnUse">
<stop stop-color="#F37321"/>
<stop offset="1" stop-color="#EE3478"/>
</linearGradient>
<linearGradient id="paint5_linear_2660_50994" x1="582.674" y1="368.419" x2="437.365" y2="57.1881" gradientUnits="userSpaceOnUse">
<stop stop-color="#F37321"/>
<stop offset="1" stop-color="#EE3478"/>
</linearGradient>
<linearGradient id="paint6_linear_2660_50994" x1="461.26" y1="543.501" x2="584.839" y2="295.198" gradientUnits="userSpaceOnUse">
<stop stop-color="#F37321"/>
<stop offset="1" stop-color="#EE3478"/>
</linearGradient>
<linearGradient id="paint7_linear_2660_50994" x1="183.504" y1="505.502" x2="491.298" y2="516.939" gradientUnits="userSpaceOnUse">
<stop stop-color="#F37321"/>
<stop offset="1" stop-color="#EE3478"/>
</linearGradient>
<linearGradient id="paint8_linear_2660_50994" x1="289.039" y1="83.2752" x2="80.7881" y2="375.052" gradientUnits="userSpaceOnUse">
<stop stop-color="#F37321"/>
<stop offset="1" stop-color="#EE3478"/>
</linearGradient>
<linearGradient id="paint9_linear_2660_50994" x1="230.887" y1="41.7702" x2="22.6509" y2="333.547" gradientUnits="userSpaceOnUse">
<stop stop-color="#F37321"/>
<stop offset="1" stop-color="#EE3478"/>
</linearGradient>
<linearGradient id="paint10_linear_2660_50994" x1="252.311" y1="57.0612" x2="44.0592" y2="348.825" gradientUnits="userSpaceOnUse">
<stop stop-color="#F37321"/>
<stop offset="1" stop-color="#EE3478"/>
</linearGradient>
<linearGradient id="paint11_linear_2660_50994" x1="12.2193" y1="312.46" x2="228.486" y2="552.746" gradientUnits="userSpaceOnUse">
<stop stop-color="#F37321"/>
<stop offset="1" stop-color="#EE3478"/>
</linearGradient>
<linearGradient id="paint12_linear_2660_50994" x1="53.92" y1="274.921" x2="270.173" y2="515.208" gradientUnits="userSpaceOnUse">
<stop stop-color="#F37321"/>
<stop offset="1" stop-color="#EE3478"/>
</linearGradient>
<linearGradient id="paint13_linear_2660_50994" x1="451.443" y1="90.5091" x2="135.645" y2="92.7994" gradientUnits="userSpaceOnUse">
<stop stop-color="#F37321"/>
<stop offset="1" stop-color="#EE3478"/>
</linearGradient>
<linearGradient id="paint14_linear_2660_50994" x1="591.946" y1="364.089" x2="446.637" y2="52.8588" gradientUnits="userSpaceOnUse">
<stop stop-color="#F37321"/>
<stop offset="1" stop-color="#EE3478"/>
</linearGradient>
<linearGradient id="paint15_linear_2660_50994" x1="183.504" y1="505.474" x2="491.299" y2="516.925" gradientUnits="userSpaceOnUse">
<stop stop-color="#F37321"/>
<stop offset="1" stop-color="#EE3478"/>
</linearGradient>
<linearGradient id="paint16_linear_2660_50994" x1="438.482" y1="532.162" x2="561.949" y2="284.11" gradientUnits="userSpaceOnUse">
<stop stop-color="#F37321"/>
<stop offset="1" stop-color="#EE3478"/>
</linearGradient>
<linearGradient id="paint17_linear_2660_50994" x1="615.115" y1="238.891" x2="1804.09" y2="268.246" gradientUnits="userSpaceOnUse">
<stop stop-color="#FADA0B"/>
<stop offset="0.48" stop-color="#12B1B9"/>
<stop offset="0.55" stop-color="#11ABB7"/>
<stop offset="0.65" stop-color="#109AB3"/>
<stop offset="0.75" stop-color="#0E80AD"/>
<stop offset="0.86" stop-color="#0B5AA4"/>
<stop offset="0.98" stop-color="#082B99"/>
<stop offset="1" stop-color="#082297"/>
</linearGradient>
<linearGradient id="paint18_linear_2660_50994" x1="663.435" y1="232.383" x2="1852.41" y2="261.738" gradientUnits="userSpaceOnUse">
<stop stop-color="#FADA0B"/>
<stop offset="0.48" stop-color="#12B1B9"/>
<stop offset="0.55" stop-color="#11ABB7"/>
<stop offset="0.65" stop-color="#109AB3"/>
<stop offset="0.75" stop-color="#0E80AD"/>
<stop offset="0.86" stop-color="#0B5AA4"/>
<stop offset="0.98" stop-color="#082B99"/>
<stop offset="1" stop-color="#082297"/>
</linearGradient>
<linearGradient id="paint19_linear_2660_50994" x1="711.7" y1="227.858" x2="1900.69" y2="257.213" gradientUnits="userSpaceOnUse">
<stop stop-color="#FADA0B"/>
<stop offset="0.48" stop-color="#12B1B9"/>
<stop offset="0.55" stop-color="#11ABB7"/>
<stop offset="0.65" stop-color="#109AB3"/>
<stop offset="0.75" stop-color="#0E80AD"/>
<stop offset="0.86" stop-color="#0B5AA4"/>
<stop offset="0.98" stop-color="#082B99"/>
<stop offset="1" stop-color="#082297"/>
</linearGradient>
<linearGradient id="paint20_linear_2660_50994" x1="760.005" y1="222.356" x2="1948.98" y2="251.711" gradientUnits="userSpaceOnUse">
<stop stop-color="#FADA0B"/>
<stop offset="0.48" stop-color="#12B1B9"/>
<stop offset="0.55" stop-color="#11ABB7"/>
<stop offset="0.65" stop-color="#109AB3"/>
<stop offset="0.75" stop-color="#0E80AD"/>
<stop offset="0.86" stop-color="#0B5AA4"/>
<stop offset="0.98" stop-color="#082B99"/>
<stop offset="1" stop-color="#082297"/>
</linearGradient>
</defs>
</svg>
