<svg width="92" height="32" viewBox="0 0 92 32" fill="none" xmlns="http://www.w3.org/2000/svg">
<g clip-path="url(#clip0_2417_9404)">
<path d="M33.0373 14.692C32.016 12.5524 29.6496 11.3716 27.3107 11.8413C27.097 11.8844 26.8807 11.93 26.6801 12.0174C25.6038 12.4832 19.2689 15.8689 18.692 16.1846C18.3289 16.3829 18.0155 16.3033 17.8372 15.9928C17.6786 15.7162 17.7769 15.3966 18.0929 15.1774C18.1742 15.1213 25.6916 11.0468 25.7296 11.022C25.7873 10.9841 25.8437 10.9437 25.8987 10.9032C27.8063 9.48374 28.4408 6.33032 27.1967 4.25587C26.5254 3.13645 25.5172 2.37321 24.3753 1.83046C19.2807 -0.591032 14.165 -0.632782 9.07039 1.84742C8.11859 2.31059 7.28084 2.94597 6.71186 3.86447C5.87935 5.20829 5.71154 6.81697 6.19138 8.25212C6.30282 8.58481 6.44965 8.90968 6.63057 9.21759C6.74463 9.41199 6.86 9.6103 7.01339 9.78121C7.42768 10.2418 7.9416 10.5784 8.64562 11.005C10.7773 12.2953 14.9477 14.7429 15.4512 15.0534C15.6059 15.1487 15.8025 15.3457 15.8169 15.4983C15.8366 15.6967 15.7737 15.9628 15.6072 16.0841C15.3515 16.2707 14.9438 16.0828 14.7301 15.9615C14.0929 15.5988 9.0114 12.6411 8.36113 12.328C7.80656 12.0618 7.18907 11.7917 7.14056 11.7722C6.29888 11.4421 5.43623 11.3534 4.53293 11.4747C2.29501 11.7761 0.597227 13.3273 0.159344 15.5257C-0.0936838 16.7965 -0.0215774 18.0725 0.209163 19.3341C1.1177 24.2815 3.6493 28.176 7.91145 30.9106C9.5948 31.9895 11.383 32.2453 13.2172 31.2785C13.9985 30.8662 14.6134 30.3365 15.0697 29.6959C15.3882 29.2497 15.6281 28.7487 15.7933 28.1981C15.8379 28.0507 15.9861 27.384 16.0503 26.6286C16.1185 25.8262 16.1486 19.6955 16.1657 18.3634C16.1709 17.9851 16.4069 17.7385 16.7333 17.7267C17.0559 17.715 17.2984 17.9498 17.3181 18.3373C17.3325 18.61 17.2984 23.7844 17.2984 26.275C17.2984 27.401 17.3521 27.9268 17.3928 28.0872C17.4937 28.4878 17.6432 28.8648 17.8385 29.2184C18.0798 29.6555 18.3918 30.056 18.7654 30.42C20.0752 31.696 21.6182 32.2818 23.4563 31.8695C24.3884 31.6608 25.2498 31.2641 26.0311 30.7253C30.7168 27.4949 33.1985 23.029 33.5158 17.3745C33.5669 16.4547 33.4424 15.5401 33.036 14.6907L33.0373 14.692ZM16.9274 17.4332C16.8317 17.3771 16.6416 17.4006 16.5341 17.458C15.678 17.9224 14.8192 18.3856 13.9841 18.8853C13.1726 19.3706 12.5721 20.0726 12.3899 21.0002C12.2339 21.7961 12.2116 22.6219 12.1775 23.436C12.1434 24.271 12.1487 25.1073 12.1421 25.9436C11.7134 25.7232 11.3083 25.4583 10.9124 25.183C9.24607 24.0271 8.00977 22.5123 7.22578 20.6479C6.54273 19.0236 6.22678 17.3445 6.42081 15.6145C7.47881 16.2355 8.53025 16.8696 9.58432 17.4984C10.78 18.2121 12.0294 18.3373 13.2867 17.7202C14.1991 17.2727 15.0697 16.7378 15.9454 16.2198C16.0542 16.1546 16.1316 15.955 16.1381 15.8141C16.1617 15.3235 16.1473 14.8329 16.1473 14.3411H16.1552C16.1552 13.9379 16.1591 13.5335 16.1552 13.1303C16.1368 11.7004 15.5324 10.581 14.3171 9.81644C13.4282 9.25673 12.5092 8.7466 11.6151 8.19471C11.4473 8.09164 11.2847 7.98075 11.1221 7.86854C12.6495 6.88742 14.3315 6.33032 16.1709 6.23377C18.0653 6.13462 19.8628 6.51037 21.5422 7.39364C21.9185 7.59195 22.2672 7.83984 22.6277 8.06946C21.5946 8.66701 20.5563 9.25281 19.5167 9.83862C18.3997 10.4688 17.6353 11.3677 17.5396 12.6711C17.4583 13.7788 17.4833 14.8943 17.4898 16.0072C17.4898 16.1272 17.6498 16.2811 17.7743 16.3581C18.4455 16.7717 19.1312 17.1605 19.8051 17.5689C21.2171 18.4247 22.6461 18.4326 24.083 17.6485C24.8237 17.2453 25.5434 16.8043 26.2842 16.4012C26.5752 16.2433 26.8741 16.0959 27.1717 15.9485C27.2098 16.5199 27.1835 17.0927 27.1245 17.6628C26.8309 20.4927 25.5828 22.8398 23.3999 24.6716C22.73 25.2326 22.0089 25.7205 21.2171 26.0702C21.2105 25.9332 21.2066 25.7988 21.2066 25.6644C21.2039 24.3767 21.2485 23.0877 21.2105 21.8013C21.179 20.7353 20.7451 19.8025 19.8523 19.1919C18.9162 18.5513 17.9146 18.002 16.9326 17.4306L16.9274 17.4332Z" fill="url(#paint0_radial_2417_9404)"/>
<path d="M64.9617 19.9251L66.2478 23.1438C67.079 23.3747 67.8407 23.7948 68.4726 24.3571C68.4975 24.3793 68.5342 24.3532 68.5211 24.3232L65.709 17.6967H63.8722L61.0535 24.3154C61.0404 24.3454 61.0771 24.3715 61.102 24.3493C61.7366 23.7857 62.4996 23.3669 63.3334 23.1399L64.6313 19.9251C64.6916 19.7764 64.9027 19.7777 64.9617 19.9251Z" fill="#AA3EF7"/>
<path d="M72.0954 17.6967H70.416V27.4362H72.0954V17.6967Z" fill="#AA3EF7"/>
<path d="M64.7813 23.5978C62.4293 23.5978 60.4602 25.2613 60 27.4675H61.644C62.0662 26.1432 63.3143 25.1804 64.7813 25.1804C66.2484 25.1804 67.4951 26.1432 67.9173 27.4675H69.5613C69.1011 25.2613 67.132 23.5978 64.7826 23.5978H64.7813Z" fill="#AA3EF7"/>
<path d="M64.7813 23.5978C62.4293 23.5978 60.4602 25.2613 60 27.4675H61.644C62.0662 26.1432 63.3143 25.1804 64.7813 25.1804C66.2484 25.1804 67.4951 26.1432 67.9173 27.4675H69.5613C69.1011 25.2613 67.132 23.5978 64.7826 23.5978H64.7813Z" fill="#AA3EF7"/>
<path d="M70.151 4.77124H68.0508V14.3189H70.151V4.77124Z" fill="url(#paint1_linear_2417_9404)"/>
<path d="M46.7742 4.77118V8.30948H41.4305V4.77118H39.3145V14.3189H41.4305V10.0786H46.7742V14.3189H48.8902V4.77118H46.7742Z" fill="url(#paint2_linear_2417_9404)"/>
<path d="M60.8751 4.77118L58.5533 8.0903L56.2171 4.77118H53.6016L57.4219 9.96252V14.3189H59.5379V9.96252L63.3425 4.77118H60.8751Z" fill="url(#paint3_linear_2417_9404)"/>
<path d="M75.386 10.474C76.5607 9.96254 77.3263 9.01012 77.3263 7.78241C77.3263 7.02178 77.0326 6.33421 76.5318 5.80843C75.9143 5.16652 75.0189 4.7699 73.6515 4.7699H68.0521V6.53905H73.7236C74.1077 6.53905 74.5338 6.5821 74.8707 6.94742C75.091 7.16791 75.209 7.46016 75.209 7.78111C75.209 8.51304 74.6059 9.03883 73.8704 9.03883H68.0508V14.3163H70.151V10.808H73.2831L75.2221 14.3163H77.6318L75.3834 10.4714L75.386 10.474Z" fill="url(#paint4_linear_2417_9404)"/>
<path d="M87.5926 6.94809L88.8787 10.0924C89.7099 10.3181 90.4716 10.7278 91.1035 11.2783C91.1284 11.2992 91.1651 11.2744 91.152 11.2457L88.3398 4.77057H86.5031L83.6844 11.2379C83.6713 11.2679 83.708 11.2927 83.7329 11.2705C84.3674 10.7199 85.1305 10.3103 85.9643 10.0885L87.2622 6.94678C87.3225 6.80196 87.5336 6.80196 87.5926 6.94678V6.94809Z" fill="url(#paint5_linear_2417_9404)"/>
<path d="M87.4122 10.5373C85.0602 10.5373 83.091 12.1629 82.6309 14.3183H84.2749C84.697 13.024 85.9451 12.0833 87.4122 12.0833C88.8792 12.0833 90.126 13.024 90.5482 14.3183H92.1922C91.732 12.1629 89.7628 10.5373 87.4135 10.5373H87.4122Z" fill="url(#paint6_linear_2417_9404)"/>
<path d="M87.4122 10.5373C85.0602 10.5373 83.091 12.1629 82.6309 14.3183H84.2749C84.697 13.024 85.9451 12.0833 87.4122 12.0833C88.8792 12.0833 90.126 13.024 90.5482 14.3183H92.1922C91.732 12.1629 89.7628 10.5373 87.4135 10.5373H87.4122Z" fill="url(#paint7_linear_2417_9404)"/>
</g>
<defs>
<radialGradient id="paint0_radial_2417_9404" cx="0" cy="0" r="1" gradientUnits="userSpaceOnUse" gradientTransform="translate(16.6757 16.6308) scale(26.4237 26.2959)">
<stop stop-color="#8707FA"/>
<stop offset="0.49" stop-color="#00ACE3"/>
<stop offset="1" stop-color="#94FFE5"/>
</radialGradient>
<linearGradient id="paint1_linear_2417_9404" x1="69.4287" y1="17.3523" x2="68.8691" y2="3.86948" gradientUnits="userSpaceOnUse">
<stop stop-color="#06F9C9"/>
<stop offset="1" stop-color="#2CD9EA"/>
</linearGradient>
<linearGradient id="paint2_linear_2417_9404" x1="44.472" y1="18.3869" x2="43.9137" y2="4.90403" gradientUnits="userSpaceOnUse">
<stop stop-color="#06F9C9"/>
<stop offset="1" stop-color="#2CD9EA"/>
</linearGradient>
<linearGradient id="paint3_linear_2417_9404" x1="59.0161" y1="17.7841" x2="58.4578" y2="4.30127" gradientUnits="userSpaceOnUse">
<stop stop-color="#06F9C9"/>
<stop offset="1" stop-color="#2CD9EA"/>
</linearGradient>
<linearGradient id="paint4_linear_2417_9404" x1="72.9632" y1="17.2062" x2="72.4049" y2="3.72201" gradientUnits="userSpaceOnUse">
<stop stop-color="#06F9C9"/>
<stop offset="1" stop-color="#2CD9EA"/>
</linearGradient>
<linearGradient id="paint5_linear_2417_9404" x1="87.6424" y1="16.6041" x2="87.0828" y2="3.12122" gradientUnits="userSpaceOnUse">
<stop stop-color="#06F9C9"/>
<stop offset="1" stop-color="#2CD9EA"/>
</linearGradient>
<linearGradient id="paint6_linear_2417_9404" x1="87.5066" y1="16.6106" x2="86.9483" y2="3.12646" gradientUnits="userSpaceOnUse">
<stop stop-color="#06F9C9"/>
<stop offset="1" stop-color="#2CD9EA"/>
</linearGradient>
<linearGradient id="paint7_linear_2417_9404" x1="87.5066" y1="16.6106" x2="86.9483" y2="3.12646" gradientUnits="userSpaceOnUse">
<stop stop-color="#06F9C9"/>
<stop offset="1" stop-color="#2CD9EA"/>
</linearGradient>
<clipPath id="clip0_2417_9404">
<rect width="92" height="32" fill="white"/>
</clipPath>
</defs>
</svg>
